<svg xmlns="http://www.w3.org/2000/svg"  viewBox="0 0 64 64" width="64px" height="64px"><path fill="#9fddff" d="M31 3A28 28 0 1 0 31 59A28 28 0 1 0 31 3Z" transform="rotate(-70.91 31.004 30.999)"/><path fill="#85cbf8" d="M31,54A23,23,0,1,1,52.74,38.52,23,23,0,0,1,31,54Z"/><path fill="#fff7f0" d="M13 29H49V35H13z"/><path fill="#fff7f0" d="M17.47 44.51a1 1 0 0 1-1-1l.08-3a3 3 0 0 1 .39-1.39l3.65-6.45 6.27-10.92a1.75 1.75 0 0 1 2.39-.65l1.94 1.11a1.74 1.74 0 0 1 .65 2.38l-5.2 9.06L22 41.84a3 3 0 0 1-1.29 1.22l-2.78 1.36A1 1 0 0 1 17.47 44.51zM40.23 37.7a2 2 0 0 1-1.84-1.23l-9.2-21.9a1.47 1.47 0 0 1 .12-1.4 1.55 1.55 0 0 1 1.27-.68 1.48 1.48 0 0 1 1.29.76L43.65 33.88a2 2 0 0 1-.85 2.79l-1.68.83A2 2 0 0 1 40.23 37.7zM45.64 45.55a1 1 0 0 1-.9-.56c-.61-1.23-1-1.35-1.64-1.51a3.06 3.06 0 0 1-2.22-1.79 3 3 0 0 1 1.36-4 3 3 0 0 1 4 1.36 9.76 9.76 0 0 1 1 3.51c.13 2-.68 2.65-1.18 2.9A1 1 0 0 1 45.64 45.55z"/><path fill="#8d6c9f" d="M57.08,18.33A29,29,0,0,0,3.59,21.52a29,29,0,1,0,54.81,19A28.81,28.81,0,0,0,57.08,18.33Zm-.57,21.5A27,27,0,1,1,55.29,19.2,27,27,0,0,1,56.51,39.83Z"/><path fill="#8d6c9f" d="M49 28H41.45l-8.7-15.24a2.45 2.45 0 0 0-2.16-1.27 2.52 2.52 0 0 0-2.11 1.13A2.49 2.49 0 0 0 28.27 15l2.44 5.81-1-.55a2.69 2.69 0 0 0-1.36-.36A2.77 2.77 0 0 0 26 21.24l-3 5.19L22.11 28H13a1 1 0 0 0-1 1v6a1 1 0 0 0 1 1h4.55l-1.47 2.61a4 4 0 0 0-.52 1.85l-.09 3a2 2 0 0 0 .92 1.73 2 2 0 0 0 2 .12L21.13 44a4 4 0 0 0 1.73-1.63L26.45 36H37.11l.36.86A3 3 0 0 0 40 38.68a3.67 3.67 0 0 0 0 3.45 4.07 4.07 0 0 0 2.85 2.31c.45.13.6.17 1 1a2 2 0 0 0 2.68.91c.72-.35 1.9-1.33 1.73-3.86a10.8 10.8 0 0 0-1.1-3.89 4 4 0 0 0-2.72-2.13 3 3 0 0 0 .24-.47H49a1 1 0 0 0 1-1V29A1 1 0 0 0 49 28zM14 34V30h7l-1.23 2.15-1 1.85zm7.12 7.35a2 2 0 0 1-.86.81l-2.79 1.35.09-3a2 2 0 0 1 .26-.93l.09-.16 3.24 1.87zm4.65-8.21l-.49.86-1.13 2-2 3.56L18.9 37.69l1-1.69L21 34l.49-.86L23.27 30l1.15-2 .33-.58 3-5.19a.73.73 0 0 1 .65-.37.84.84 0 0 1 .37.09l1.94 1.12a.75.75 0 0 1 .28 1L28.72 28l-.49.85L27.57 30zm6.83-7.88L33.75 28H31zm-5 8.74l2.3-4h4.71l1.68 4zm13.1 2.59a.93.93 0 0 1-.45.11 1 1 0 0 1-.92-.61l0-.09-.84-2-1.68-4-.83-2-5.8-13.81a.5.5 0 0 1 .47-.7.47.47 0 0 1 .42.26L39.14 28l1.15 2 2.28 4 .21.37a1 1 0 0 1-.42 1.4l-.47.23zm4.69 2.89c1 2.09 1.26 4.58.27 5.07-1.47-3-2.83-1.21-3.86-3.3a2 2 0 1 1 3.59-1.77zM48 34H44.78a3 3 0 0 0-.26-.62L42.59 30H48zM31 51a1 1 0 0 0-1 1v2a1 1 0 0 0 2 0V52A1 1 0 0 0 31 51zM37 51.08a1 1 0 0 0-1.93.52l.52 1.93A1 1 0 0 0 37.53 53zM21.75 48.52a1 1 0 0 0-1.37.37l-1 1.73a1 1 0 0 0 1.73 1l1-1.73A1 1 0 0 0 21.75 48.52zM41.62 48.89a1 1 0 0 0-1.73 1l1 1.73a1 1 0 0 0 1.73-1zM26.21 50.37a1 1 0 0 0-1.22.71L24.47 53a1 1 0 1 0 1.93.52l.52-1.93A1 1 0 0 0 26.21 50.37zM46.07 15.36A1 1 0 0 0 47.5 14a23 23 0 0 0-1.84-1.7 1 1 0 1 0-1.27 1.54A21.19 21.19 0 0 1 46.07 15.36zM21.82 11.11a21.08 21.08 0 0 1 19.11.39 1 1 0 1 0 .95-1.76A23.08 23.08 0 0 0 21 9.31a1 1 0 1 0 .87 1.8z"/></svg>